# xmcd CD database file
#
# Track frame offsets:
#	150
#	27406
#	53640
#	100304
#	147837
#	185390
#	220757
#
# Disc length: 3332 seconds
#
# Revision: 0
# Processed by: cddbd v1.5.2PL0 Copyright (c) Steve Scherf et al.
# Submitted via: CDex 1.51
#
DISCID=5d0d0207
DTITLE=KCP5 feat. Charlie Mariano - Many Ways
DYEAR=2006
DGENRE=Jazz
TTITLE0=Many Ways
TTITLE1=Lazy Day
TTITLE2=Jayam
TTITLE3=Arun
TTITLE4=Balaji
TTITLE5=Varnum
TTITLE6=17th Cross
EXTD=YEAR: 2006
EXTT0=
EXTT1=
EXTT2=
EXTT3=
EXTT4=
EXTT5=
EXTT6=
PLAYORDER=
